{
    "asset" : {
        "generator" : "Khronos glTF Blender I/O v1.5.17",
        "version" : "2.0"
    },
    "scene" : 0,
    "scenes" : [
        {
            "name" : "Scene",
            "nodes" : [
                0
            ]
        }
    ],
    "nodes" : [
        {
            "mesh" : 0,
            "name" : "Circle"
        }
    ],
    "meshes" : [
        {
            "name" : "Circle",
            "primitives" : [
                {
                    "attributes" : {
                        "POSITION" : 0,
                        "NORMAL" : 1,
                        "TEXCOORD_0" : 2
                    },
                    "indices" : 3
                }
            ]
        }
    ],
    "accessors" : [
        {
            "bufferView" : 0,
            "componentType" : 5126,
            "count" : 534,
            "max" : [
                2.1807069778442383,
                2.50213885307312,
                0.9807852506637573
            ],
            "min" : [
                -0.9807852506637573,
                0,
                -0.9807853698730469
            ],
            "type" : "VEC3"
        },
        {
            "bufferView" : 1,
            "componentType" : 5126,
            "count" : 534,
            "type" : "VEC3"
        },
        {
            "bufferView" : 2,
            "componentType" : 5126,
            "count" : 534,
            "type" : "VEC2"
        },
        {
            "bufferView" : 3,
            "componentType" : 5123,
            "count" : 2496,
            "type" : "SCALAR"
        }
    ],
    "bufferViews" : [
        {
            "buffer" : 0,
            "byteLength" : 6408,
            "byteOffset" : 0
        },
        {
            "buffer" : 0,
            "byteLength" : 6408,
            "byteOffset" : 6408
        },
        {
            "buffer" : 0,
            "byteLength" : 4272,
            "byteOffset" : 12816
        },
        {
            "buffer" : 0,
            "byteLength" : 4992,
            "byteOffset" : 17088
        }
    ],
    "buffers" : [
        {
            "byteLength" : 22080,
            "uri" : "data:application/octet-stream;base64,"
        }
    ]
}
